<svg width="215" height="66" xmlns="http://www.w3.org/2000/svg" viewBox="0 0 325.57 106.89"><defs><style>.cls-1{fill:#369642;}</style></defs><g id="Capa_2" data-name="Capa 2"><g id="Capa_1-2" data-name="Capa 1"><path class="cls-1" d="M11.61,24.46c9.49-6.69,23.27-6.21,32.39.91a26.43,26.43,0,0,1,9.12,13,29.06,29.06,0,0,1,1.22,8.13c-.09,6.75.13,13.5-.05,20.25A6.79,6.79,0,0,1,52,71.41c-2.6,2.55-7.76,1.84-9.32-1.56a16.79,16.79,0,0,1-.91-2.45,21.11,21.11,0,0,1-10.56,5.7,29.51,29.51,0,0,1-12.41-.26A25.42,25.42,0,0,1,3.74,61a29.08,29.08,0,0,1-3-20.63A26.7,26.7,0,0,1,11.61,24.46ZM24.55,34a13.47,13.47,0,0,0-7.15,4.43,13.06,13.06,0,0,0-.69,15.48C20,59,27,61,32.53,58.61c6.49-2.45,9.71-10.79,6.88-17C37.27,35.77,30.45,32.49,24.55,34Z"/><path class="cls-1" d="M322.57,72.49l-29.82-4.86c-2.07-.33-2.66,2.73-.77,4L303,79.14A80.09,80.09,0,0,1,287.1,87c-12.3,4.48-25.4,6.34-38.42,6.55A186.08,186.08,0,0,1,206.16,89c-2.13-.44-4.22-1-6.35-1.45,3.48,1.28,7,2.42,10.53,3.52a215.47,215.47,0,0,0,43.57,8.82,148.39,148.39,0,0,0,37.6-1.07,103.34,103.34,0,0,0,17.7-4.54l.06,10.13c0,2.33,2.83,3.5,3.69,1.54L325.3,77.66A3.91,3.91,0,0,0,322.57,72.49Z"/><path d="M101.24,7.25A7.49,7.49,0,0,1,106,.3a7.55,7.55,0,0,1,8.64,3.3,9.73,9.73,0,0,1,1.12,5.19q0,16.34,0,32.67c0,3.46.17,7-.58,10.37C113.06,63.64,102,73,90.06,73.46c-11.54,1-23-6.55-27.11-17.3A27.69,27.69,0,0,1,62.26,39,27.08,27.08,0,0,1,73.39,24.08a28.33,28.33,0,0,1,27.77-1.39C101.29,17.55,101.16,12.39,101.24,7.25ZM87,33.76A13.06,13.06,0,0,0,77.15,41a13.59,13.59,0,0,0,.94,12.89,13.34,13.34,0,0,0,16.4,4.5,13.16,13.16,0,0,0,6.38-16.79A12.78,12.78,0,0,0,87,33.76Z"/><path d="M145.81,20a29.3,29.3,0,0,1,19.38,3.82,26.71,26.71,0,0,1,10.55,33.33,27.5,27.5,0,0,1-25.8,16.35c-12.16.32-24-8.57-26.76-20.47A27.13,27.13,0,0,1,126,33.11,27.47,27.47,0,0,1,145.81,20Zm1.51,13.89A13.6,13.6,0,0,0,141,37.18c-4.69,4.42-5,12.38-1.15,17.43,4,5.37,12.37,6.42,17.82,2.66s7-11.91,3.62-17.56A13,13,0,0,0,147.32,33.85Z"/><path d="M190.57,26.12a21.67,21.67,0,0,1,19.93-6,17.34,17.34,0,0,1,10.5,7,18.46,18.46,0,0,1,9.31-6.69A21.62,21.62,0,0,1,257,35.77a28.47,28.47,0,0,1,.83,7.91c-.06,7.4.07,14.79-.06,22.19A7.31,7.31,0,0,1,254,72a7.37,7.37,0,0,1-10.87-6.48c-.08-8.3,0-16.61-.05-24.92a7.32,7.32,0,0,0-7.63-7.16,7.12,7.12,0,0,0-6.53,5,12.63,12.63,0,0,0-.33,3.78c0,3.24.06,6.48,0,9.72,0,2.18.22,4.56-1,6.5-1.42,2.31-4.08,4.12-6.88,3.72-3.47-.36-6.8-3.22-6.9-6.84-.16-4.88,0-9.77-.1-14.65a7.26,7.26,0,0,0-4.29-6.6,7.35,7.35,0,0,0-9,2.64,8.28,8.28,0,0,0-1.13,4.74c0,8,0,16.07,0,24.11a7.82,7.82,0,0,1-5.43,7.19c-4.13,1-9.12-2-9.42-6.42,0-8.55-.11-17.1,0-25.65C184.25,35.18,186.83,30,190.57,26.12Z"/><path d="M271.71,20.23a7.14,7.14,0,0,1,7.46,3.35,9.11,9.11,0,0,1,1.1,4.92c0,12.31,0,24.63-.06,36.94a7.77,7.77,0,0,1-4.54,6.89c-4.26,1.82-9.94-1.43-10.17-6.15-.09-13.18-.06-26.36,0-39.54C265.61,23.33,268.59,20.76,271.71,20.23Z"/><path d="M8.56,100.29a2.33,2.33,0,0,1-.46-.68,2,2,0,0,1-.17-.82V90.6a5.43,5.43,0,0,1,.46-2.23,5.89,5.89,0,0,1,1.26-1.86,5.69,5.69,0,0,1,1.84-1.26,5.81,5.81,0,0,1,5.92.89,5.75,5.75,0,0,1,3.68-1.33,6,6,0,0,1,2.26.44,6.15,6.15,0,0,1,1.92,1.26,5.83,5.83,0,0,1,1.32,1.87,5.42,5.42,0,0,1,.46,2.22v8.19a1.88,1.88,0,0,1-.17.82,2,2,0,0,1-.46.68,2,2,0,0,1-1.48.62,2.08,2.08,0,0,1-1.53-.62,2.33,2.33,0,0,1-.46-.68,2,2,0,0,1-.17-.82V90.73a1.2,1.2,0,0,0-.14-.57,1.73,1.73,0,0,0-.39-.5,1.78,1.78,0,0,0-.54-.3,1.59,1.59,0,0,0-.59-.12,1.53,1.53,0,0,0-1.51,1.28.44.44,0,0,0,0,.13v8.07a2.12,2.12,0,0,1-.62,1.52,2.25,2.25,0,0,1-.67.47,2.12,2.12,0,0,1-.83.17,2.17,2.17,0,0,1-2.15-2.16V90.94l0-.19v0a1.31,1.31,0,0,0-.13-.57,1.56,1.56,0,0,0-.33-.5,1.51,1.51,0,0,0-.49-.33,1.46,1.46,0,0,0-.57-.12,1.58,1.58,0,0,0-1,.34,1.52,1.52,0,0,0-.56.87,3,3,0,0,1,0,.31l-.07,8.06a2.45,2.45,0,0,1-.17.82,2,2,0,0,1-.46.68,2,2,0,0,1-1.48.62A2.08,2.08,0,0,1,8.56,100.29Z"/><path d="M33.84,100.48a7.91,7.91,0,0,1-2.53-1.71,7.84,7.84,0,0,1-1.72-8.61,7.81,7.81,0,0,1,1.72-2.55,7.91,7.91,0,0,1,2.53-1.71,7.93,7.93,0,0,1,10.93,7.18v5.81a2.11,2.11,0,0,1-.63,1.55,2.52,2.52,0,0,1-.72.48,2.22,2.22,0,0,1-.85.17,2,2,0,0,1-1.81-1,7.88,7.88,0,0,1-3.89,1A7.77,7.77,0,0,1,33.84,100.48Zm4.42-4a3.39,3.39,0,0,0,1.15-.76,3.45,3.45,0,0,0,.78-1.15,3.55,3.55,0,0,0-1.93-4.66,3.62,3.62,0,0,0-1.39-.27,3.51,3.51,0,0,0-1.36.27,3.61,3.61,0,0,0-1.14.76,3.75,3.75,0,0,0-.79,1.15,3.52,3.52,0,0,0,0,2.75,3.63,3.63,0,0,0,.79,1.15,3.45,3.45,0,0,0,1.14.76,3.52,3.52,0,0,0,1.36.28A3.63,3.63,0,0,0,38.26,96.49Z"/><path d="M49,100.75a2,2,0,0,1-.7-.46,2.23,2.23,0,0,1-.49-.68,2,2,0,0,1-.17-.82V93.35a8,8,0,0,1,.7-3.08,8.38,8.38,0,0,1,7.47-5H56a2.24,2.24,0,0,1,1.64.59A2.24,2.24,0,0,1,57.53,89a2.2,2.2,0,0,1-.72.45,2.27,2.27,0,0,1-.86.16h-.1a3.73,3.73,0,0,0-1.49.33,4,4,0,0,0-1.23.85A4.08,4.08,0,0,0,52.27,92a4,4,0,0,0-.32,1.5v5.26a2.13,2.13,0,0,1-.16.84,1.93,1.93,0,0,1-.45.66,2,2,0,0,1-1.49.62A2.41,2.41,0,0,1,49,100.75Z"/><path d="M61.05,100.75a2.27,2.27,0,0,1-1.17-1.14,1.85,1.85,0,0,1-.18-.81v-17a2.17,2.17,0,0,1,1.35-1.94,2.12,2.12,0,0,1,.83-.16,2.05,2.05,0,0,1,1.52.61A2.09,2.09,0,0,1,64,81.8v8.64l4.72-4.34a2,2,0,0,1,1.41-.56,2,2,0,0,1,.83.17,2.18,2.18,0,0,1,.7.46,2.36,2.36,0,0,1,.49.72,2,2,0,0,1,.18.83,1.76,1.76,0,0,1-.17.81,2.1,2.1,0,0,1-.5.7l-3.93,3.6,4.85,4.44a1.72,1.72,0,0,1,.59,1.32,2.22,2.22,0,0,1-.17.85,2.68,2.68,0,0,1-.46.72,2,2,0,0,1-1.49.7,2.28,2.28,0,0,1-1.59-.65l-5.46-5V98.8a2.09,2.09,0,0,1-.17.83,1.8,1.8,0,0,1-.45.66,2,2,0,0,1-1.49.62A2.31,2.31,0,0,1,61.05,100.75Z"/><path d="M79.56,100.47A7.91,7.91,0,0,1,77,98.77a8.14,8.14,0,0,1-1.73-2.53,7.6,7.6,0,0,1-.62-3,7.8,7.8,0,0,1,.62-3.07,8,8,0,0,1,4.27-4.24,8,8,0,0,1,3.07-.61,7.8,7.8,0,0,1,3,.6,7.79,7.79,0,0,1,4.25,4.19,7.76,7.76,0,0,1,.66,3A1.91,1.91,0,0,1,90,94.57a2.09,2.09,0,0,1-1.53.56h-9a4.08,4.08,0,0,0,1.35,1.33,3.52,3.52,0,0,0,1.8.48,4.52,4.52,0,0,0,1-.09,2.79,2.79,0,0,0,.71-.29,2.29,2.29,0,0,1,1.24-.39,2,2,0,0,1,1.51.66,2.57,2.57,0,0,1,.44.71,2.41,2.41,0,0,1,.16.84,1.94,1.94,0,0,1-.32,1.06,2.73,2.73,0,0,1-.93.84,7.61,7.61,0,0,1-3.8.81A7.78,7.78,0,0,1,79.56,100.47Zm6.59-8.93A3.58,3.58,0,0,0,84.78,90a3.85,3.85,0,0,0-2.08-.58,3.61,3.61,0,0,0-3.36,2.14Z"/><path d="M97.24,100.49A7.83,7.83,0,0,1,93,96.26a7.77,7.77,0,0,1-.62-3.05V82.74a2.21,2.21,0,0,1,.17-.84,2.16,2.16,0,0,1,.48-.72,2.25,2.25,0,0,1,.69-.46,2.12,2.12,0,0,1,.83-.17,2.3,2.3,0,0,1,.85.17,2.68,2.68,0,0,1,.72.46,2.55,2.55,0,0,1,.49.72,1.91,1.91,0,0,1,.19.84v2.07h5a2.21,2.21,0,0,1,.84.17,2.07,2.07,0,0,1,1.16,1.16,2.21,2.21,0,0,1,.17.84,1.92,1.92,0,0,1-.63,1.45,2.18,2.18,0,0,1-.7.46,2.41,2.41,0,0,1-.84.16h-5v4.19a3.57,3.57,0,0,0,.26,1.38,3.26,3.26,0,0,0,.74,1.14,3.3,3.3,0,0,0,1.12.77,3.4,3.4,0,0,0,1.36.27,3.16,3.16,0,0,0,2.23-.76,2.35,2.35,0,0,1,1.63-.73,1.86,1.86,0,0,1,.72.15,2,2,0,0,1,.62.43,2,2,0,0,1,.6,1.43,2.42,2.42,0,0,1-.2,1,2.64,2.64,0,0,1-.57.86,6.73,6.73,0,0,1-2.28,1.46,7.79,7.79,0,0,1-2.75.48A7.69,7.69,0,0,1,97.24,100.49Z"/><path d="M109.25,106.34a2.29,2.29,0,0,1-.7-.48,2.33,2.33,0,0,1-.48-.72,2.2,2.2,0,0,1-.18-.88V93.08a7.36,7.36,0,0,1,.65-3,8.09,8.09,0,0,1,4.25-4.18,7.75,7.75,0,0,1,3-.61,7.64,7.64,0,0,1,3,.62,7.86,7.86,0,0,1,4.23,4.25,7.87,7.87,0,0,1-10.87,10v4.05a2.27,2.27,0,0,1-.58,1.6,2,2,0,0,1-1.52.65A2.21,2.21,0,0,1,109.25,106.34Zm7.93-9.85a3.45,3.45,0,0,0,1.14-.76,3.6,3.6,0,0,0,.78-1.15,3.64,3.64,0,0,0,0-2.75,3.72,3.72,0,0,0-.78-1.15,3.54,3.54,0,0,0-2.52-1,3.54,3.54,0,0,0-1.38.27,3.61,3.61,0,0,0-1.14.76,3.75,3.75,0,0,0-.79,1.15,3.52,3.52,0,0,0,0,2.75,3.63,3.63,0,0,0,.79,1.15,3.45,3.45,0,0,0,1.14.76,3.54,3.54,0,0,0,1.38.28A3.62,3.62,0,0,0,117.18,96.49Z"/><path d="M130,100.53a5.6,5.6,0,0,1-1.79-1.08A5,5,0,0,1,127,97.77a5.1,5.1,0,0,1-.44-2.1V81.85a2.05,2.05,0,0,1,.61-1.52,2,2,0,0,1,1.46-.63,2.12,2.12,0,0,1,.85.17,2.27,2.27,0,0,1,.72.46,2.2,2.2,0,0,1,.48.69,2,2,0,0,1,.18.83V95.76q.07.93,1.26.93a2.15,2.15,0,0,1,.85.16,1.88,1.88,0,0,1,.68.45,2,2,0,0,1,.44.68,2.34,2.34,0,0,1,0,1.65,2,2,0,0,1-.44.68,2.16,2.16,0,0,1-.68.44,2.42,2.42,0,0,1-.85.16A6,6,0,0,1,130,100.53Z"/><path d="M140.17,100.48a7.8,7.8,0,0,1-2.53-1.71,7.84,7.84,0,0,1-1.72-8.61,7.88,7.88,0,0,1,10.3-4.27,8.08,8.08,0,0,1,4.22,4.18,7.9,7.9,0,0,1,.66,3v5.81a2.12,2.12,0,0,1-.64,1.55,2.34,2.34,0,0,1-.71.48,2.22,2.22,0,0,1-.85.17,2,2,0,0,1-1.06-.27,2.18,2.18,0,0,1-.76-.75,7.84,7.84,0,0,1-3.88,1A7.74,7.74,0,0,1,140.17,100.48Zm4.42-4a3.5,3.5,0,0,0,1.15-.76,3.6,3.6,0,0,0,.78-1.15,3.64,3.64,0,0,0,0-2.75,3.72,3.72,0,0,0-.78-1.15,3.59,3.59,0,0,0-2.54-1,3.6,3.6,0,0,0-1.37.27,3.85,3.85,0,0,0-1.14.76,3.9,3.9,0,0,0-.78,1.15,3.52,3.52,0,0,0,0,2.75,3.77,3.77,0,0,0,.78,1.15,3.67,3.67,0,0,0,1.14.76,3.54,3.54,0,0,0,2.76,0Z"/><path d="M158.21,100.5a8.11,8.11,0,0,1-2.58-1.66,7.92,7.92,0,0,1-1.75-2.53,7.54,7.54,0,0,1-.63-3,7.74,7.74,0,0,1,.63-3.1,8,8,0,0,1,1.75-2.57,8.12,8.12,0,0,1,2.59-1.69,8.42,8.42,0,0,1,6.14-.06,6.66,6.66,0,0,1,2.43,1.59,2.87,2.87,0,0,1,.57.86,2.24,2.24,0,0,1,.2.94,2,2,0,0,1-.77,1.55,2.66,2.66,0,0,1-.7.42,1.82,1.82,0,0,1-.68.15,2.05,2.05,0,0,1-.95-.23,6.61,6.61,0,0,1-1-.68,3.45,3.45,0,0,0-1.09-.59,3.88,3.88,0,0,0-1.14-.17,3.5,3.5,0,0,0-1.4.28,3.59,3.59,0,0,0-1.14.79,3.55,3.55,0,0,0-.75,1.12,3.41,3.41,0,0,0-.27,1.34,3.18,3.18,0,0,0,.25,1.23,3.53,3.53,0,0,0,.68,1.11,3.4,3.4,0,0,0,1.06.84,2.86,2.86,0,0,0,1.28.33h.31a3.78,3.78,0,0,0,1.14-.17,3.74,3.74,0,0,0,1.07-.6,5.73,5.73,0,0,1,1-.67,2,2,0,0,1,.95-.22,2.09,2.09,0,0,1,.7.13,2.51,2.51,0,0,1,.69.42,2,2,0,0,1,.78,1.57,2.4,2.4,0,0,1-.2.93,2.83,2.83,0,0,1-.56.83,6.62,6.62,0,0,1-2.44,1.59,8.17,8.17,0,0,1-3,.55A8.3,8.3,0,0,1,158.21,100.5Z"/><path d="M174.07,100.47a8,8,0,0,1-2.56-1.7,8.11,8.11,0,0,1-1.72-2.53,7.44,7.44,0,0,1-.62-3,7.62,7.62,0,0,1,.62-3.07,7.87,7.87,0,0,1,4.27-4.24,7.92,7.92,0,0,1,3.06-.61,7.8,7.8,0,0,1,3,.6,7.79,7.79,0,0,1,4.25,4.19,7.77,7.77,0,0,1,.67,3,1.94,1.94,0,0,1-.59,1.48,2.12,2.12,0,0,1-1.53.56h-9a4.11,4.11,0,0,0,1.36,1.33,3.51,3.51,0,0,0,1.79.48,4.52,4.52,0,0,0,1-.09,2.65,2.65,0,0,0,.71-.29,2.32,2.32,0,0,1,1.25-.39,2,2,0,0,1,1.5.66,2.35,2.35,0,0,1,.44.71,2.2,2.2,0,0,1,.16.84,1.93,1.93,0,0,1-.31,1.06,2.73,2.73,0,0,1-.93.84,7.65,7.65,0,0,1-3.81.81A7.77,7.77,0,0,1,174.07,100.47Zm6.58-8.93A3.52,3.52,0,0,0,179.28,90a3.84,3.84,0,0,0-2.07-.58,3.64,3.64,0,0,0-3.37,2.14Z"/></g></g></svg>